<svg width="319" height="40" viewBox="0 0 319 40" fill="none" xmlns="http://www.w3.org/2000/svg">
<path d="M18.4161 39.0336C18.1298 39.1052 17.7002 39.1946 17.1275 39.302C16.5906 39.3736 16 39.4452 15.3557 39.5168C14.7472 39.6242 14.1208 39.6958 13.4765 39.7315C12.868 39.8031 12.349 39.8389 11.9195 39.8389C9.8792 39.8389 8.10738 39.5705 6.60403 39.0336C5.10067 38.4967 3.84788 37.5123 2.84564 36.0805C1.87919 34.613 1.16331 32.6085 0.697987 30.0671C0.232662 27.4899 0 24.1611 0 20.0805C0 16 0.268456 12.7427 0.805369 10.3087C1.34228 7.83893 2.14765 5.95974 3.22148 4.67115C4.2953 3.38256 5.61969 2.54139 7.19463 2.14765C8.76958 1.71813 10.5772 1.50336 12.6175 1.50336C12.9754 1.50336 13.4407 1.53915 14.0134 1.61074C14.5861 1.64653 15.1588 1.70023 15.7315 1.77182C16.34 1.8434 16.877 1.93289 17.3423 2.04027C17.8434 2.11186 18.2013 2.18345 18.4161 2.25504V8.75168C17.5213 8.53692 16.4474 8.35795 15.1946 8.21477C13.9776 8.0358 12.8859 7.94631 11.9195 7.94631C11.132 7.94631 10.4519 8.08949 9.8792 8.37584C9.34228 8.6264 8.89485 9.18121 8.53691 10.0403C8.17897 10.8993 7.91052 12.1521 7.73154 13.7987C7.55257 15.4452 7.46309 17.6644 7.46309 20.4564C7.46309 23.2483 7.53468 25.4855 7.67785 27.1678C7.85682 28.8501 8.10738 30.1566 8.42953 31.0873C8.78747 32.0179 9.2528 32.6443 9.8255 32.9664C10.3982 33.2528 11.0962 33.396 11.9195 33.396C13.0291 33.396 14.2103 33.3065 15.4631 33.1275C16.7517 32.9486 17.736 32.7696 18.4161 32.5906V39.0336Z" fill="black"/>
<path d="M28.5969 39.4631V1.8792H35.9526V33.2349H46.8519V39.4631H28.5969Z" fill="black"/>
<path d="M70.9803 20.5101C70.9803 17.7539 70.8908 15.5168 70.7118 13.7987C70.5329 12.0447 70.2465 10.6846 69.8528 9.71812C69.459 8.71589 68.94 8.0358 68.2957 7.67786C67.6514 7.31991 66.8461 7.14094 65.8796 7.14094C64.9132 7.14094 64.1078 7.31991 63.4635 7.67786C62.8192 8.0358 62.3002 8.71589 61.9065 9.71812C61.5127 10.6846 61.2264 12.0447 61.0474 13.7987C60.8684 15.5168 60.7789 17.7539 60.7789 20.5101C60.7789 23.2304 60.8684 25.4676 61.0474 27.2215C61.2264 28.9754 61.5127 30.3714 61.9065 31.4094C62.3002 32.4474 62.8192 33.1812 63.4635 33.6107C64.1078 34.0045 64.9132 34.2013 65.8796 34.2013C66.8461 34.2013 67.6514 34.0045 68.2957 33.6107C68.94 33.1812 69.459 32.4474 69.8528 31.4094C70.2465 30.3714 70.5329 28.9754 70.7118 27.2215C70.8908 25.4676 70.9803 23.2304 70.9803 20.5101ZM78.4434 20.2416C78.4434 23.5347 78.2823 26.4161 77.9602 28.8859C77.6738 31.3557 77.0653 33.4139 76.1347 35.0604C75.2398 36.7069 73.9691 37.9418 72.3226 38.7651C70.676 39.5884 68.5284 40 65.8796 40C63.2308 40 61.0832 39.5884 59.4367 38.7651C57.7901 37.9418 56.5015 36.7069 55.5709 35.0604C54.676 33.4139 54.0675 31.3557 53.7454 28.8859C53.459 26.4161 53.3159 23.5347 53.3159 20.2416C53.3159 17.0917 53.4769 14.3356 53.7991 11.9732C54.157 9.61074 54.8013 7.64206 55.732 6.06712C56.6626 4.49217 57.9333 3.31097 59.544 2.52349C61.1906 1.73602 63.3024 1.34229 65.8796 1.34229C68.4568 1.34229 70.5508 1.73602 72.1615 2.52349C73.808 3.31097 75.0966 4.49217 76.0273 6.06712C76.9579 7.64206 77.5843 9.61074 77.9065 11.9732C78.2644 14.3356 78.4434 17.0917 78.4434 20.2416Z" fill="black"/>
<path d="M104.844 39.4631H93.5151L85.9983 1.8792H93.7299L99.3675 34.2013L105.22 1.8792H112.414L104.844 39.4631Z" fill="black"/>
<path d="M121.81 39.4631V1.8792H141.031V7.67786H129.166V17.1812H139.689V22.9262H129.166V33.6644H141.031V39.4631H121.81Z" fill="black"/>
<path d="M173.651 13.2617C173.651 16.2327 173.204 18.5772 172.309 20.2953C171.414 21.9776 170.161 23.2304 168.55 24.0537L175.262 39.4631H166.94L161.248 25.2886H159.101V39.4631H151.745V1.8792C152.783 1.80761 153.875 1.71812 155.02 1.61074C155.987 1.53915 157.042 1.48546 158.188 1.44967C159.369 1.37808 160.515 1.34229 161.624 1.34229C163.951 1.34229 165.884 1.59284 167.423 2.09396C168.962 2.55929 170.197 3.29307 171.128 4.29531C172.058 5.29754 172.702 6.55034 173.06 8.05369C173.454 9.52126 173.651 11.2573 173.651 13.2617ZM166.188 13.6376C166.188 11.5257 165.937 10.0224 165.436 9.12752C164.935 8.23267 163.915 7.78524 162.376 7.78524C161.517 7.78524 160.765 7.83893 160.121 7.94631C159.727 8.0179 159.387 8.07159 159.101 8.10739V18.953H162.483C163.593 18.953 164.488 18.5056 165.168 17.6107C165.848 16.7159 166.188 15.3915 166.188 13.6376Z" fill="black"/>
<path d="M192.83 7.67786V17.7181H203.353V23.5168H192.83V39.4631H185.474V1.8792H204.695V7.67786H192.83Z" fill="black"/>
<path d="M213.039 39.4631V33.7718H216.797V7.57047H213.039V1.8792H227.911V7.57047H224.153V33.7718H227.911V39.4631H213.039Z" fill="black"/>
<path d="M237.827 39.4631V1.8792H257.049V7.67786H245.183V17.1812H255.706V22.9262H245.183V33.6644H257.049V39.4631H237.827Z" fill="black"/>
<path d="M267.762 39.4631V1.8792H275.118V33.2349H286.017V39.4631H267.762Z" fill="black"/>
<path d="M310.013 20.4564C310.013 17.5571 309.906 15.2841 309.691 13.6376C309.512 11.9553 309.226 10.6846 308.832 9.82551C308.474 8.96645 307.991 8.42953 307.382 8.21477C306.809 7.96421 306.111 7.83893 305.288 7.83893C304.787 7.83893 304.322 7.85683 303.892 7.89262C303.498 7.89262 303.158 7.91052 302.872 7.94631C302.514 7.98211 302.21 8.0179 301.959 8.05369V33.2886C302.174 33.3244 302.443 33.3602 302.765 33.396C303.051 33.4318 303.391 33.4676 303.785 33.5034C304.179 33.5034 304.662 33.5034 305.234 33.5034C306.058 33.5034 306.774 33.3065 307.382 32.9128C307.991 32.519 308.492 31.8389 308.885 30.8725C309.279 29.8703 309.566 28.528 309.745 26.8456C309.924 25.1633 310.013 23.0336 310.013 20.4564ZM317.476 20.0805C317.476 24.0895 317.208 27.3826 316.671 29.9597C316.134 32.5369 315.328 34.5772 314.255 36.0805C313.181 37.5481 311.839 38.5682 310.228 39.1409C308.653 39.7137 306.827 40 304.751 40C303.821 40 302.765 39.9642 301.583 39.8926C300.402 39.8568 299.293 39.8031 298.255 39.7315C297.073 39.6242 295.856 39.5347 294.604 39.4631V1.8792C295.856 1.80761 297.073 1.71812 298.255 1.61074C299.257 1.53915 300.295 1.48546 301.369 1.44967C302.443 1.37808 303.355 1.34229 304.107 1.34229C306.255 1.34229 308.152 1.57495 309.798 2.04027C311.481 2.5056 312.877 3.41835 313.986 4.77853C315.132 6.13871 315.991 8.0358 316.563 10.4698C317.172 12.9038 317.476 16.1074 317.476 20.0805Z" fill="black"/>
<path d="M19.3111 37.6913C19.0248 37.7629 18.5952 37.8524 18.0225 37.9597C17.4856 38.0313 16.895 38.1029 16.2507 38.1745C15.6422 38.2819 15.0158 38.3535 14.3715 38.3893C13.763 38.4609 13.244 38.4966 12.8145 38.4966C10.7742 38.4966 9.0024 38.2282 7.49905 37.6913C5.99569 37.1544 4.74289 36.17 3.74066 34.7383C2.77421 33.2707 2.05833 31.2662 1.59301 28.7248C1.12768 26.1477 0.89502 22.8188 0.89502 18.7383C0.89502 14.6577 1.16348 11.4004 1.70039 8.96644C2.2373 6.49664 3.04267 4.61745 4.1165 3.32886C5.19032 2.04027 6.51471 1.19911 8.08965 0.805369C9.6646 0.37584 11.4722 0.161075 13.5125 0.161075C13.8704 0.161075 14.3357 0.196868 14.9084 0.268456C15.4812 0.304249 16.0539 0.357942 16.6266 0.429532C17.2351 0.501119 17.772 0.590604 18.2373 0.697987C18.7384 0.769575 19.0964 0.841163 19.3111 0.912753V7.4094C18.4163 7.19463 17.3424 7.01566 16.0897 6.87248C14.8726 6.69351 13.7809 6.60403 12.8145 6.60403C12.027 6.60403 11.3469 6.7472 10.7742 7.03356C10.2373 7.28412 9.78987 7.83893 9.43193 8.69799C9.07399 9.55705 8.80553 10.8098 8.62656 12.4564C8.44759 14.1029 8.35811 16.3221 8.35811 19.1141C8.35811 21.906 8.4297 24.1432 8.57287 25.8255C8.75184 27.5078 9.0024 28.8143 9.32455 29.745C9.68249 30.6756 10.1478 31.302 10.7205 31.6242C11.2932 31.9105 11.9912 32.0537 12.8145 32.0537C13.9241 32.0537 15.1053 31.9642 16.3581 31.7852C17.6467 31.6063 18.631 31.4273 19.3111 31.2483V37.6913Z" fill="#FAFAFA"/>
<path d="M29.4919 38.1208V0.536912H36.8476V31.8926H47.747V38.1208H29.4919Z" fill="#FAFAFA"/>
<path d="M71.8753 19.1678C71.8753 16.4116 71.7858 14.1745 71.6068 12.4564C71.4279 10.7025 71.1415 9.34228 70.7478 8.37584C70.3541 7.3736 69.835 6.69351 69.1907 6.33557C68.5464 5.97763 67.7411 5.79866 66.7746 5.79866C65.8082 5.79866 65.0028 5.97763 64.3585 6.33557C63.7142 6.69351 63.1952 7.3736 62.8015 8.37584C62.4077 9.34228 62.1214 10.7025 61.9424 12.4564C61.7634 14.1745 61.674 16.4116 61.674 19.1678C61.674 21.8881 61.7634 24.1253 61.9424 25.8792C62.1214 27.6331 62.4077 29.0291 62.8015 30.0671C63.1952 31.1051 63.7142 31.8389 64.3585 32.2685C65.0028 32.6622 65.8082 32.8591 66.7746 32.8591C67.7411 32.8591 68.5464 32.6622 69.1907 32.2685C69.835 31.8389 70.3541 31.1051 70.7478 30.0671C71.1415 29.0291 71.4279 27.6331 71.6068 25.8792C71.7858 24.1253 71.8753 21.8881 71.8753 19.1678ZM79.3384 18.8993C79.3384 22.1924 79.1773 25.0738 78.8552 27.5436C78.5688 30.0134 77.9603 32.0716 77.0297 33.7181C76.1348 35.3647 74.8641 36.5996 73.2176 37.4228C71.5711 38.2461 69.4234 38.6577 66.7746 38.6577C64.1259 38.6577 61.9782 38.2461 60.3317 37.4228C58.6852 36.5996 57.3966 35.3647 56.4659 33.7181C55.5711 32.0716 54.9626 30.0134 54.6404 27.5436C54.354 25.0738 54.2109 22.1924 54.2109 18.8993C54.2109 15.7494 54.3719 12.9933 54.6941 10.6309C55.052 8.26846 55.6963 6.29978 56.627 4.72483C57.5576 3.14989 58.8283 1.96868 60.4391 1.18121C62.0856 0.393736 64.1975 0 66.7746 0C69.3518 0 71.4458 0.393736 73.0565 1.18121C74.703 1.96868 75.9916 3.14989 76.9223 4.72483C77.8529 6.29978 78.4793 8.26846 78.8015 10.6309C79.1594 12.9933 79.3384 15.7494 79.3384 18.8993Z" fill="#FAFAFA"/>
<path d="M105.739 38.1208H94.4101L86.8933 0.536912H94.6249L100.262 32.8591L106.115 0.536912H113.309L105.739 38.1208Z" fill="#FAFAFA"/>
<path d="M122.705 38.1208V0.536912H141.926V6.33557H130.061V15.8389H140.584V21.5839H130.061V32.3222H141.926V38.1208H122.705Z" fill="#FAFAFA"/>
<path d="M174.546 11.9195C174.546 14.8904 174.099 17.2349 173.204 18.953C172.309 20.6353 171.056 21.8881 169.445 22.7114L176.157 38.1208H167.835L162.143 23.9463H159.996V38.1208H152.64V0.536912C153.678 0.465325 154.77 0.375839 155.915 0.268456C156.882 0.196868 157.938 0.143178 159.083 0.107384C160.264 0.0357946 161.41 0 162.519 0C164.846 0 166.779 0.250559 168.318 0.751678C169.857 1.217 171.092 1.95078 172.023 2.95302C172.953 3.95526 173.597 5.20805 173.955 6.71141C174.349 8.17897 174.546 9.91499 174.546 11.9195ZM167.083 12.2953C167.083 10.1834 166.832 8.68009 166.331 7.78524C165.83 6.89038 164.81 6.44295 163.271 6.44295C162.412 6.44295 161.66 6.49664 161.016 6.60403C160.622 6.67562 160.282 6.72931 159.996 6.7651V17.6107H163.378C164.488 17.6107 165.383 17.1633 166.063 16.2685C166.743 15.3736 167.083 14.0492 167.083 12.2953Z" fill="#FAFAFA"/>
<path d="M193.725 6.33557V16.3758H204.248V22.1745H193.725V38.1208H186.369V0.536912H205.59V6.33557H193.725Z" fill="#FAFAFA"/>
<path d="M213.934 38.1208V32.4295H217.692V6.22819H213.934V0.536912H228.807V6.22819H225.048V32.4295H228.807V38.1208H213.934Z" fill="#FAFAFA"/>
<path d="M238.722 38.1208V0.536912H257.944V6.33557H246.078V15.8389H256.601V21.5839H246.078V32.3222H257.944V38.1208H238.722Z" fill="#FAFAFA"/>
<path d="M268.657 38.1208V0.536912H276.013V31.8926H286.912V38.1208H268.657Z" fill="#FAFAFA"/>
<path d="M310.908 19.1141C310.908 16.2148 310.801 13.9418 310.586 12.2953C310.407 10.613 310.121 9.34228 309.727 8.48322C309.369 7.62416 308.886 7.08725 308.277 6.87248C307.704 6.62192 307.006 6.49664 306.183 6.49664C305.682 6.49664 305.217 6.51454 304.787 6.55034C304.393 6.55034 304.053 6.56823 303.767 6.60403C303.409 6.63982 303.105 6.67562 302.854 6.71141V31.9463C303.069 31.9821 303.338 32.0179 303.66 32.0537C303.946 32.0895 304.286 32.1253 304.68 32.1611C305.074 32.1611 305.557 32.1611 306.129 32.1611C306.953 32.1611 307.669 31.9642 308.277 31.5705C308.886 31.1767 309.387 30.4966 309.781 29.5302C310.174 28.528 310.461 27.1857 310.64 25.5034C310.819 23.821 310.908 21.6913 310.908 19.1141ZM318.371 18.7383C318.371 22.7472 318.103 26.0403 317.566 28.6175C317.029 31.1946 316.223 33.2349 315.15 34.7383C314.076 36.2058 312.734 37.226 311.123 37.7987C309.548 38.3714 307.722 38.6577 305.646 38.6577C304.716 38.6577 303.66 38.6219 302.478 38.5503C301.297 38.5145 300.188 38.4609 299.15 38.3893C297.968 38.2819 296.751 38.1924 295.499 38.1208V0.536912C296.751 0.465325 297.968 0.375839 299.15 0.268456C300.152 0.196868 301.19 0.143178 302.264 0.107384C303.338 0.0357946 304.25 0 305.002 0C307.15 0 309.047 0.232662 310.693 0.697987C312.376 1.16331 313.772 2.07606 314.881 3.43624C316.027 4.79642 316.886 6.69351 317.458 9.12752C318.067 11.5615 318.371 14.7651 318.371 18.7383Z" fill="#FAFAFA"/>
</svg>
